<svg data-v-423bf9ae="" xmlns="http://www.w3.org/2000/svg" viewBox="0 0 1265.3994490358127 193" class="fontAboveSlogan"><!----><!----><!----><g data-v-423bf9ae="" id="832d711f-83b1-41f7-9975-37c71bfd0876" fill="#FFB000" transform="matrix(9.630819327229409,0,0,9.630819327229409,500.3504665744738,-25.562136927956104)"><path d="M14.24 2.73L13.94 2.73L12.52 8.81L8.76 8.81C9.48 5.80 9.63 4.98 9.70 4.69C10.15 4.76 10.70 4.79 11.38 4.79L11.38 4.49C9.69 4.49 8.90 4.23 8.13 3.95C7.46 3.72 6.83 3.51 5.71 3.51C3.84 3.51 2.52 4.87 2.52 6.80L2.83 6.80C2.83 5.04 4.00 3.82 5.71 3.82C6.78 3.82 7.39 4.02 8.04 4.26L8.13 4.30C7.99 4.87 7.41 7.25 6.38 11.51C5.84 13.66 5.39 14.73 3.57 14.73C2.81 14.73 1.95 14.49 1.33 13.80C0.74 13.16 0.50 12.28 0.59 11.28L0.28 11.24C0.18 12.33 0.48 13.30 1.11 14.03C1.76 14.76 2.80 15.19 3.82 15.19C6.83 15.19 7.83 12.75 8.44 10.14C8.53 9.74 8.62 9.39 8.69 9.06L12.46 9.06L12.03 10.96C12.03 10.96 11.86 11.63 11.86 11.89C11.86 12.29 12.08 12.70 12.70 12.70C13.31 12.70 13.58 12.19 13.58 12.19L13.38 12.03C13.38 12.03 13.13 12.43 12.70 12.43C12.26 12.43 12.15 12.12 12.15 11.84C12.15 11.66 12.28 11.14 12.28 11.14ZM15.64 9.14C16.25 9.74 17.18 9.93 18.09 9.93L18.09 9.63C18.07 9.65 16.62 9.70 15.82 8.93C15.51 8.62 15.32 8.20 15.32 7.70C15.32 5.54 17.49 4.17 21.31 3.85L19.96 11.59C19.61 13.55 19.64 13.79 18.21 13.92L18.21 14.18C19.78 14.18 21.62 13.08 22.01 10.95C22.57 8.22 23.03 4.82 23.18 3.78C25.59 3.81 26.94 4.59 26.94 5.96C26.94 7.73 25.02 8.75 23.38 8.75L23.38 9.03C23.65 9.03 24.07 9.00 24.39 8.93C24.39 8.93 25.76 9.45 25.76 10.71C25.76 11.87 24.82 12.94 22.16 12.75L22.16 13.03C23.77 13.03 27.34 12.82 27.34 10.60C27.34 9.59 26.47 8.99 24.77 8.79C26.36 8.30 27.24 7.21 27.24 5.96C27.24 4.54 26.10 3.51 23.06 3.51C17.96 3.51 15.05 5.03 15.05 7.70C15.05 8.29 15.25 8.78 15.64 9.14Z"></path></g><!----><!----><g data-v-423bf9ae="" id="f8a74acf-3d97-467a-af40-3e2e8d44e6ed" fill="#695600" transform="matrix(6.749156818825468,0,0,6.749156818825468,-2.4971930248289027,94.59730255990198)"><path d="M0.37 10.27L0.37 10.27L0.37 10.27Q0.37 9.64 0.54 9.00L0.54 9.00L0.54 9.00Q0.71 8.36 1.06 7.78L1.06 7.78L1.06 7.78Q1.41 7.21 1.89 6.75L1.89 6.75L1.89 6.75Q2.37 6.30 3.03 6.04L3.03 6.04L3.03 6.04Q3.70 5.77 4.46 5.77L4.46 5.77L4.46 5.77Q5.20 5.77 5.90 5.94L5.90 5.94L5.90 5.94Q6.60 6.11 7.08 6.47L7.08 6.47L6.87 8.64L6.56 8.61L6.35 6.99L6.35 6.99Q6.08 6.65 5.54 6.41L5.54 6.41L5.54 6.41Q4.99 6.17 4.23 6.17L4.23 6.17L4.23 6.17Q2.82 6.17 1.99 7.27L1.99 7.27L1.99 7.27Q1.15 8.37 1.15 10.07L1.15 10.07L1.15 10.07Q1.15 10.69 1.26 11.25L1.26 11.25L1.26 11.25Q1.37 11.81 1.62 12.34L1.62 12.34L1.62 12.34Q1.87 12.87 2.25 13.25L2.25 13.25L2.25 13.25Q2.63 13.63 3.22 13.86L3.22 13.86L3.22 13.86Q3.81 14.09 4.54 14.09L4.54 14.09L4.54 14.09Q5.60 14.09 6.32 13.59L6.32 13.59L6.33 11.03L4.68 10.86L4.72 10.60L8.00 10.60L7.96 10.86L7.04 11.01L7.04 13.86L7.04 13.86Q6.39 14.25 5.65 14.39L5.65 14.39L5.65 14.39Q4.92 14.53 3.83 14.53L3.83 14.53L3.83 14.53Q3.12 14.53 2.49 14.23L2.49 14.23L2.49 14.23Q1.86 13.93 1.39 13.39L1.39 13.39L1.39 13.39Q0.92 12.85 0.65 12.04L0.65 12.04L0.65 12.04Q0.37 11.23 0.37 10.27ZM16.90 6.36L15.67 6.18L15.72 5.89L21.92 5.89L21.70 8.07L21.39 8.03L21.26 6.24L17.61 6.24L17.61 9.89L19.90 9.89L20.15 8.94L20.52 8.89L20.30 11.55L19.95 11.61L19.84 10.26L17.61 10.26L17.61 14.03L21.45 14.03L21.96 12.19L22.24 12.26L22.03 14.40L15.70 14.40L15.74 14.11L16.90 13.90L16.90 6.36ZM30.01 8.09L29.94 5.89L37.00 5.89L36.76 8.16L36.42 8.12L36.31 6.24L33.77 6.24L33.77 13.90L34.98 14.08L34.90 14.40L31.81 14.40L31.84 14.11L33.04 13.90L33.04 6.24L30.60 6.24L30.37 8.15L30.01 8.09ZM56.52 6.15L56.52 9.75L58.64 9.75L58.64 9.75Q59.10 9.45 59.43 9.01L59.43 9.01L59.43 9.01Q59.77 8.57 59.77 8.02L59.77 8.02L59.77 8.02Q59.77 7.08 59.13 6.59L59.13 6.59L59.13 6.59Q58.49 6.11 57.35 6.11L57.35 6.11L57.35 6.11Q56.70 6.11 56.52 6.15L56.52 6.15ZM56.52 10.08L56.52 14.03L58.20 14.03L58.20 14.03Q58.84 14.03 59.29 13.85L59.29 13.85L59.29 13.85Q59.75 13.68 60.00 13.38L60.00 13.38L60.00 13.38Q60.24 13.08 60.35 12.74L60.35 12.74L60.35 12.74Q60.46 12.41 60.46 12.02L60.46 12.02L60.46 12.02Q60.46 11.68 60.35 11.36L60.35 11.36L60.35 11.36Q60.24 11.04 60.00 10.74L60.00 10.74L60.00 10.74Q59.76 10.45 59.32 10.26L59.32 10.26L59.32 10.26Q58.87 10.08 58.27 10.08L58.27 10.08L56.52 10.08ZM57.52 14.40L54.62 14.40L54.67 14.11L55.83 13.90L55.83 6.51L54.65 6.36L54.72 6.12L54.72 6.12Q54.84 6.10 55.28 6.03L55.28 6.03L55.28 6.03Q55.72 5.96 55.89 5.94L55.89 5.94L55.89 5.94Q56.07 5.91 56.42 5.87L56.42 5.87L56.42 5.87Q56.78 5.83 57.09 5.82L57.09 5.82L57.09 5.82Q57.40 5.80 57.75 5.80L57.75 5.80L57.75 5.80Q59.04 5.80 59.75 6.38L59.75 6.38L59.75 6.38Q60.46 6.96 60.46 7.79L60.46 7.79L60.46 7.79Q60.46 8.98 59.05 9.76L59.05 9.76L59.05 9.80L59.05 9.80Q60.04 9.86 60.61 10.46L60.61 10.46L60.61 10.46Q61.18 11.05 61.18 11.80L61.18 11.80L61.18 11.80Q61.18 12.22 61.08 12.58L61.08 12.58L61.08 12.58Q60.98 12.95 60.71 13.29L60.71 13.29L60.71 13.29Q60.45 13.63 60.05 13.87L60.05 13.87L60.05 13.87Q59.64 14.11 59.00 14.25L59.00 14.25L59.00 14.25Q58.35 14.40 57.52 14.40L57.52 14.40ZM70.12 6.36L68.89 6.18L68.94 5.89L75.13 5.89L74.92 8.07L74.61 8.03L74.48 6.24L70.83 6.24L70.83 9.89L73.12 9.89L73.37 8.94L73.74 8.89L73.51 11.55L73.17 11.61L73.06 10.26L70.83 10.26L70.83 14.03L74.67 14.03L75.17 12.19L75.46 12.26L75.25 14.40L68.91 14.40L68.95 14.11L70.12 13.90L70.12 6.36ZM83.17 13.60L83.17 13.60L83.38 11.66L83.71 11.71L83.90 13.21L83.90 13.21Q84.12 13.64 84.65 13.89L84.65 13.89L84.65 13.89Q85.18 14.14 85.78 14.14L85.78 14.14L85.78 14.14Q86.47 14.14 86.95 13.74L86.95 13.74L86.95 13.74Q87.42 13.33 87.42 12.61L87.42 12.61L87.42 12.61Q87.42 12.20 87.21 11.83L87.21 11.83L87.21 11.83Q86.99 11.46 86.65 11.18L86.65 11.18L86.65 11.18Q86.30 10.90 85.88 10.63L85.88 10.63L85.88 10.63Q85.46 10.36 85.05 10.07L85.05 10.07L85.05 10.07Q84.63 9.79 84.28 9.48L84.28 9.48L84.28 9.48Q83.94 9.17 83.72 8.75L83.72 8.75L83.72 8.75Q83.51 8.33 83.51 7.84L83.51 7.84L83.51 7.84Q83.51 6.88 84.20 6.29L84.20 6.29L84.20 6.29Q84.90 5.71 85.78 5.71L85.78 5.71L85.78 5.71Q86.37 5.71 86.91 5.90L86.91 5.90L86.91 5.90Q87.45 6.09 87.77 6.46L87.77 6.46L87.55 8.58L87.23 8.53L87.05 6.87L87.05 6.87Q86.86 6.54 86.45 6.32L86.45 6.32L86.45 6.32Q86.03 6.10 85.60 6.10L85.60 6.10L85.60 6.10Q85.00 6.10 84.59 6.48L84.59 6.48L84.59 6.48Q84.18 6.87 84.18 7.52L84.18 7.52L84.18 7.52Q84.18 7.96 84.40 8.35L84.40 8.35L84.40 8.35Q84.62 8.74 84.97 9.03L84.97 9.03L84.97 9.03Q85.33 9.32 85.75 9.61L85.75 9.61L85.75 9.61Q86.17 9.89 86.60 10.17L86.60 10.17L86.60 10.17Q87.03 10.45 87.38 10.75L87.38 10.75L87.38 10.75Q87.73 11.05 87.95 11.45L87.95 11.45L87.95 11.45Q88.18 11.85 88.18 12.29L88.18 12.29L88.18 12.29Q88.18 13.28 87.42 13.93L87.42 13.93L87.42 13.93Q86.67 14.57 85.43 14.57L85.43 14.57L85.43 14.57Q84.72 14.57 84.12 14.30L84.12 14.30L84.12 14.30Q83.51 14.03 83.17 13.60ZM95.96 8.09L95.89 5.89L102.95 5.89L102.71 8.16L102.37 8.12L102.25 6.24L99.72 6.24L99.72 13.90L100.93 14.08L100.85 14.40L97.75 14.40L97.79 14.11L98.98 13.90L98.98 6.24L96.55 6.24L96.31 8.15L95.96 8.09ZM121.80 6.33L120.57 6.16L120.59 5.89L123.70 5.89L123.67 6.16L122.51 6.32L122.51 9.95L127.42 9.95L127.42 6.33L126.16 6.16L126.21 5.89L129.32 5.89L129.27 6.16L128.13 6.32L128.13 13.95L129.38 14.08L129.33 14.40L126.23 14.40L126.29 14.11L127.42 13.90L127.42 10.36L122.51 10.36L122.51 13.95L123.79 14.08L123.71 14.40L120.62 14.40L120.65 14.11L121.80 13.90L121.80 6.33ZM137.87 9.75L137.87 9.75L137.87 9.75Q137.87 11.03 138.23 12.01L138.23 12.01L138.23 12.01Q138.59 13.00 139.31 13.57L139.31 13.57L139.31 13.57Q140.03 14.14 141.00 14.14L141.00 14.14L141.00 14.14Q141.58 14.14 142.07 13.92L142.07 13.92L142.07 13.92Q142.56 13.70 142.91 13.33L142.91 13.33L142.91 13.33Q143.25 12.96 143.50 12.49L143.50 12.49L143.50 12.49Q143.74 12.01 143.86 11.50L143.86 11.50L143.86 11.50Q143.97 10.99 143.97 10.48L143.97 10.48L143.97 10.48Q143.97 8.50 143.12 7.29L143.12 7.29L143.12 7.29Q142.27 6.07 140.82 6.07L140.82 6.07L140.82 6.07Q140.24 6.07 139.75 6.28L139.75 6.28L139.75 6.28Q139.25 6.49 138.91 6.85L138.91 6.85L138.91 6.85Q138.57 7.21 138.33 7.69L138.33 7.69L138.33 7.69Q138.09 8.16 137.98 8.69L137.98 8.69L137.98 8.69Q137.87 9.21 137.87 9.75ZM137.12 10.16L137.12 10.16L137.12 10.16Q137.12 8.16 138.21 6.92L138.21 6.92L138.21 6.92Q139.31 5.69 141.15 5.69L141.15 5.69L141.15 5.69Q142.28 5.69 143.10 6.27L143.10 6.27L143.10 6.27Q143.92 6.86 144.31 7.84L144.31 7.84L144.31 7.84Q144.71 8.83 144.71 10.11L144.71 10.11L144.71 10.11Q144.71 10.75 144.56 11.38L144.56 11.38L144.56 11.38Q144.41 12.00 144.08 12.58L144.08 12.58L144.08 12.58Q143.76 13.17 143.30 13.61L143.30 13.61L143.30 13.61Q142.84 14.05 142.16 14.32L142.16 14.32L142.16 14.32Q141.48 14.58 140.68 14.58L140.68 14.58L140.68 14.58Q139.62 14.58 138.80 13.98L138.80 13.98L138.80 13.98Q137.98 13.37 137.55 12.37L137.55 12.37L137.55 12.37Q137.12 11.37 137.12 10.16ZM152.50 8.09L152.43 5.89L159.49 5.89L159.25 8.16L158.91 8.12L158.79 6.24L156.26 6.24L156.26 13.90L157.47 14.08L157.39 14.40L154.29 14.40L154.33 14.11L155.52 13.90L155.52 6.24L153.09 6.24L152.85 8.15L152.50 8.09ZM168.42 6.36L167.20 6.18L167.25 5.89L173.44 5.89L173.23 8.07L172.92 8.03L172.79 6.24L169.13 6.24L169.13 9.89L171.42 9.89L171.68 8.94L172.05 8.89L171.82 11.55L171.47 11.61L171.36 10.26L169.13 10.26L169.13 14.03L172.98 14.03L173.48 12.19L173.76 12.26L173.56 14.40L167.22 14.40L167.26 14.11L168.42 13.90L168.42 6.36ZM187.64 14.40L181.49 14.40L181.52 14.11L182.68 13.90L182.68 6.34L181.50 6.17L181.53 5.90L184.64 5.90L184.61 6.17L183.41 6.32L183.41 14.03L187.03 14.03L187.56 12.09L187.86 12.14L187.64 14.40Z"></path></g></svg>