<svg data-v-423bf9ae="" xmlns="http://www.w3.org/2000/svg" viewBox="0 0 107.49340417196032 60" class="font"><!----><!----><!----><g data-v-423bf9ae="" id="c819b7db-77e7-4be5-83ba-90b7736abac1" fill="white" transform="matrix(3.957783680996693,0,0,3.957783680996693,1.662267472560977,-4.036939755965051)"><path d="M2.23 9.08L2.23 8.48L3.47 8.48L3.47 4.59L3.47 4.59Q3.47 4.44 3.44 4.35L3.44 4.35L3.44 4.35Q3.40 4.27 3.34 4.21L3.34 4.21L3.34 4.21Q3.28 4.16 3.20 4.15L3.20 4.15L3.20 4.15Q3.11 4.13 3.01 4.13L3.01 4.13L3.01 4.13Q2.86 4.13 2.64 4.18L2.64 4.18L2.64 4.18Q2.41 4.22 2.17 4.32L2.17 4.32L2.17 4.32Q1.92 4.42 1.67 4.56L1.67 4.56L1.67 4.56Q1.42 4.70 1.23 4.87L1.23 4.87L1.23 4.87Q1.03 5.05 0.91 5.27L0.91 5.27L0.91 5.27Q0.79 5.49 0.79 5.74L0.79 5.74L0.79 5.74Q0.79 5.96 0.84 6.09L0.84 6.09L0.84 6.09Q0.90 6.22 0.98 6.29L0.98 6.29L0.98 6.29Q1.05 6.35 1.13 6.37L1.13 6.37L1.13 6.37Q1.21 6.38 1.24 6.38L1.24 6.38L1.24 6.38Q1.42 6.38 1.52 6.33L1.52 6.33L1.52 6.33Q1.63 6.27 1.72 6.20L1.72 6.20L1.72 6.20Q1.81 6.14 1.89 6.08L1.89 6.08L1.89 6.08Q1.97 6.02 2.07 6.02L2.07 6.02L2.07 6.02Q2.15 6.02 2.25 6.06L2.25 6.06L2.25 6.06Q2.34 6.10 2.42 6.18L2.42 6.18L2.42 6.18Q2.50 6.26 2.55 6.40L2.55 6.40L2.55 6.40Q2.60 6.53 2.60 6.72L2.60 6.72L2.60 6.72Q2.60 6.99 2.50 7.19L2.50 7.19L2.50 7.19Q2.39 7.39 2.23 7.52L2.23 7.52L2.23 7.52Q2.06 7.66 1.84 7.72L1.84 7.72L1.84 7.72Q1.63 7.79 1.42 7.79L1.42 7.79L1.42 7.79Q1.09 7.79 0.82 7.67L0.82 7.67L0.82 7.67Q0.56 7.56 0.38 7.36L0.38 7.36L0.38 7.36Q0.19 7.16 0.10 6.90L0.10 6.90L0.10 6.90Q0 6.63 0 6.33L0 6.33L0 6.33Q0 5.86 0.17 5.47L0.17 5.47L0.17 5.47Q0.34 5.07 0.64 4.76L0.64 4.76L0.64 4.76Q0.94 4.44 1.34 4.21L1.34 4.21L1.34 4.21Q1.74 3.97 2.20 3.81L2.20 3.81L2.20 3.81Q2.67 3.66 3.17 3.58L3.17 3.58L3.17 3.58Q3.68 3.50 4.18 3.50L4.18 3.50L4.18 3.50Q4.74 3.50 5.06 3.61L5.06 3.61L5.06 3.61Q5.37 3.71 5.51 3.86L5.51 3.86L5.51 3.86Q5.66 4.01 5.69 4.18L5.69 4.18L5.69 4.18Q5.71 4.34 5.71 4.45L5.71 4.45L5.71 8.48L8.23 8.48L8.23 5.20L8.23 5.20Q8.23 4.07 8.52 3.27L8.52 3.27L8.52 3.27Q8.82 2.48 9.28 1.98L9.28 1.98L9.28 1.98Q9.75 1.48 10.32 1.25L10.32 1.25L10.32 1.25Q10.90 1.02 11.46 1.02L11.46 1.02L11.46 1.02Q11.85 1.02 12.21 1.08L12.21 1.08L12.21 1.08Q12.56 1.13 12.82 1.25L12.82 1.25L12.82 1.25Q13.08 1.37 13.24 1.54L13.24 1.54L13.24 1.54Q13.40 1.72 13.40 1.95L13.40 1.95L13.40 1.95Q13.40 2.05 13.37 2.14L13.37 2.14L13.37 2.14Q13.34 2.24 13.28 2.31L13.28 2.31L13.28 2.31Q13.23 2.39 13.16 2.43L13.16 2.43L13.16 2.43Q13.08 2.47 13.01 2.47L13.01 2.47L13.01 2.47Q12.89 2.47 12.79 2.40L12.79 2.40L12.79 2.40Q12.69 2.32 12.61 2.21L12.61 2.21L12.61 2.21Q12.52 2.10 12.44 1.97L12.44 1.97L12.44 1.97Q12.36 1.83 12.26 1.72L12.26 1.72L12.26 1.72Q12.15 1.61 12.02 1.53L12.02 1.53L12.02 1.53Q11.89 1.46 11.72 1.46L11.72 1.46L11.72 1.46Q11.30 1.46 11.05 1.69L11.05 1.69L11.05 1.69Q10.81 1.91 10.68 2.35L10.68 2.35L10.68 2.35Q10.55 2.80 10.51 3.45L10.51 3.45L10.51 3.45Q10.47 4.11 10.47 4.96L10.47 4.96L10.47 8.48L11.85 8.48L11.85 9.08L10.47 9.08L10.47 13.24L10.47 13.24Q10.47 13.44 10.56 13.56L10.56 13.56L10.56 13.56Q10.64 13.68 10.82 13.68L10.82 13.68L10.82 13.68Q11.01 13.68 11.18 13.61L11.18 13.61L11.18 13.61Q11.34 13.54 11.46 13.48L11.46 13.48L11.58 13.73L11.58 13.73Q11.43 13.84 11.23 13.95L11.23 13.95L11.23 13.95Q11.03 14.06 10.78 14.16L10.78 14.16L10.78 14.16Q10.54 14.26 10.26 14.32L10.26 14.32L10.26 14.32Q9.99 14.39 9.69 14.39L9.69 14.39L9.69 14.39Q9.22 14.39 8.93 14.27L8.93 14.27L8.93 14.27Q8.65 14.14 8.49 13.94L8.49 13.94L8.49 13.94Q8.33 13.74 8.28 13.49L8.28 13.49L8.28 13.49Q8.23 13.23 8.23 12.97L8.23 12.97L8.23 9.08L5.71 9.08L5.71 12.49L5.71 12.49Q5.71 13.42 5.38 14.11L5.38 14.11L5.38 14.11Q5.04 14.80 4.45 15.26L4.45 15.26L4.45 15.26Q3.86 15.72 3.07 15.95L3.07 15.95L3.07 15.95Q2.27 16.18 1.36 16.18L1.36 16.18L1.36 16.18Q1.01 16.18 0.69 16.12L0.69 16.12L0.69 16.12Q0.37 16.06 0.12 15.96L0.12 15.96L0.12 15.96Q-0.12 15.86-0.27 15.72L-0.27 15.72L-0.27 15.72Q-0.42 15.58-0.42 15.42L-0.42 15.42L-0.42 15.42Q-0.42 15.29-0.38 15.17L-0.38 15.17L-0.38 15.17Q-0.35 15.04-0.28 14.94L-0.28 14.94L-0.28 14.94Q-0.21 14.83-0.11 14.77L-0.11 14.77L-0.11 14.77Q-0.01 14.70 0.11 14.70L0.11 14.70L0.11 14.70Q0.18 14.70 0.24 14.77L0.24 14.77L0.24 14.77Q0.30 14.85 0.36 14.96L0.36 14.96L0.36 14.96Q0.42 15.07 0.50 15.20L0.50 15.20L0.50 15.20Q0.58 15.33 0.71 15.45L0.71 15.45L0.71 15.45Q0.83 15.56 1.01 15.63L1.01 15.63L1.01 15.63Q1.19 15.71 1.46 15.71L1.46 15.71L1.46 15.71Q1.98 15.71 2.36 15.52L2.36 15.52L2.36 15.52Q2.74 15.33 2.99 14.98L2.99 14.98L2.99 14.98Q3.23 14.63 3.35 14.15L3.35 14.15L3.35 14.15Q3.47 13.67 3.47 13.09L3.47 13.09L3.47 9.08L2.23 9.08ZM19.85 11.27L19.18 11.27L16.72 6.37L16.63 8.02L16.63 8.02Q16.59 8.74 16.56 9.44L16.56 9.44L16.56 9.44Q16.53 10.15 16.45 10.79L16.45 10.79L16.45 10.79Q16.37 11.43 16.19 11.98L16.19 11.98L16.19 11.98Q16.02 12.52 15.69 12.92L15.69 12.92L15.69 12.92Q15.35 13.32 14.82 13.55L14.82 13.55L14.82 13.55Q14.29 13.77 13.50 13.77L13.50 13.77L13.50 13.77Q13.15 13.77 12.83 13.72L12.83 13.72L12.83 13.72Q12.51 13.66 12.26 13.56L12.26 13.56L12.26 13.56Q12.02 13.45 11.87 13.31L11.87 13.31L11.87 13.31Q11.72 13.17 11.72 13.01L11.72 13.01L11.72 13.01Q11.72 12.89 11.76 12.76L11.76 12.76L11.76 12.76Q11.79 12.63 11.86 12.53L11.86 12.53L11.86 12.53Q11.93 12.42 12.03 12.36L12.03 12.36L12.03 12.36Q12.13 12.29 12.25 12.29L12.25 12.29L12.25 12.29Q12.33 12.29 12.38 12.37L12.38 12.37L12.38 12.37Q12.44 12.44 12.50 12.55L12.50 12.55L12.50 12.55Q12.56 12.67 12.64 12.80L12.64 12.80L12.64 12.80Q12.72 12.93 12.85 13.04L12.85 13.04L12.85 13.04Q12.97 13.15 13.15 13.23L13.15 13.23L13.15 13.23Q13.33 13.30 13.60 13.30L13.60 13.30L13.60 13.30Q14.12 13.30 14.48 13.12L14.48 13.12L14.48 13.12Q14.84 12.94 15.07 12.60L15.07 12.60L15.07 12.60Q15.31 12.26 15.43 11.77L15.43 11.77L15.43 11.77Q15.55 11.29 15.61 10.67L15.61 10.67L15.61 10.67Q15.64 10.33 15.67 10.01L15.67 10.01L15.67 10.01Q15.70 9.69 15.72 9.38L15.72 9.38L15.72 9.38Q15.75 9.06 15.77 8.74L15.77 8.74L15.77 8.74Q15.80 8.42 15.83 8.05L15.83 8.05L15.83 8.05Q15.86 7.53 15.89 7.05L15.89 7.05L15.89 7.05Q15.91 6.58 15.93 6.17L15.93 6.17L15.93 6.17Q15.95 5.76 15.96 5.43L15.96 5.43L15.96 5.43Q15.97 5.10 15.98 4.86L15.98 4.86L15.98 4.86Q15.86 4.62 15.77 4.47L15.77 4.47L15.77 4.47Q15.68 4.33 15.59 4.25L15.59 4.25L15.59 4.25Q15.49 4.17 15.37 4.14L15.37 4.14L15.37 4.14Q15.26 4.12 15.09 4.12L15.09 4.12L15.09 4.12Q14.96 4.12 14.76 4.17L14.76 4.17L14.76 4.17Q14.55 4.22 14.34 4.31L14.34 4.31L14.34 4.31Q14.12 4.41 13.91 4.55L13.91 4.55L13.91 4.55Q13.69 4.69 13.52 4.87L13.52 4.87L13.52 4.87Q13.36 5.05 13.25 5.27L13.25 5.27L13.25 5.27Q13.15 5.49 13.15 5.74L13.15 5.74L13.15 5.74Q13.15 5.96 13.20 6.09L13.20 6.09L13.20 6.09Q13.26 6.22 13.34 6.29L13.34 6.29L13.34 6.29Q13.42 6.35 13.50 6.37L13.50 6.37L13.50 6.37Q13.58 6.38 13.61 6.38L13.61 6.38L13.61 6.38Q13.78 6.38 13.89 6.33L13.89 6.33L13.89 6.33Q14 6.27 14.09 6.20L14.09 6.20L14.09 6.20Q14.18 6.14 14.26 6.08L14.26 6.08L14.26 6.08Q14.33 6.02 14.44 6.02L14.44 6.02L14.44 6.02Q14.52 6.02 14.61 6.06L14.61 6.06L14.61 6.06Q14.70 6.10 14.78 6.18L14.78 6.18L14.78 6.18Q14.86 6.26 14.92 6.40L14.92 6.40L14.92 6.40Q14.97 6.53 14.97 6.72L14.97 6.72L14.97 6.72Q14.97 6.99 14.86 7.19L14.86 7.19L14.86 7.19Q14.76 7.39 14.59 7.52L14.59 7.52L14.59 7.52Q14.42 7.66 14.21 7.72L14.21 7.72L14.21 7.72Q13.99 7.79 13.78 7.79L13.78 7.79L13.78 7.79Q13.45 7.79 13.19 7.67L13.19 7.67L13.19 7.67Q12.93 7.56 12.74 7.36L12.74 7.36L12.74 7.36Q12.56 7.16 12.46 6.90L12.46 6.90L12.46 6.90Q12.37 6.63 12.37 6.33L12.37 6.33L12.37 6.33Q12.37 5.62 12.69 5.09L12.69 5.09L12.69 5.09Q13.02 4.56 13.56 4.20L13.56 4.20L13.56 4.20Q14.09 3.85 14.76 3.67L14.76 3.67L14.76 3.67Q15.44 3.50 16.13 3.50L16.13 3.50L16.13 3.50Q16.69 3.50 17.07 3.61L17.07 3.61L17.07 3.61Q17.45 3.73 17.70 3.91L17.70 3.91L17.70 3.91Q17.95 4.10 18.12 4.35L18.12 4.35L18.12 4.35Q18.28 4.61 18.42 4.89L18.42 4.89L20.22 8.55L20.22 8.55Q20.92 7.16 21.50 6.07L21.50 6.07L21.50 6.07Q22.08 4.97 22.57 4.14L22.57 4.14L22.57 4.14Q23.06 3.30 23.49 2.71L23.49 2.71L23.49 2.71Q23.92 2.13 24.32 1.75L24.32 1.75L24.32 1.75Q24.72 1.38 25.11 1.21L25.11 1.21L25.11 1.21Q25.50 1.04 25.93 1.04L25.93 1.04L25.93 1.04Q26.29 1.04 26.52 1.19L26.52 1.19L26.52 1.19Q26.74 1.35 26.74 1.65L26.74 1.65L26.74 1.65Q26.74 1.93 26.65 2.11L26.65 2.11L26.65 2.11Q26.56 2.28 26.41 2.28L26.41 2.28L26.41 2.28Q26.28 2.28 26.21 2.18L26.21 2.18L26.21 2.18Q26.14 2.08 26.08 1.97L26.08 1.97L26.08 1.97Q26.01 1.85 25.92 1.75L25.92 1.75L25.92 1.75Q25.82 1.65 25.63 1.65L25.63 1.65L25.63 1.65Q25.53 1.65 25.37 1.72L25.37 1.72L25.37 1.72Q25.21 1.78 25.04 1.90L25.04 1.90L25.04 1.90Q24.88 2.02 24.71 2.21L24.71 2.21L24.71 2.21Q24.55 2.39 24.42 2.64L24.42 2.64L24.42 2.64Q24.30 2.88 24.23 3.20L24.23 3.20L24.23 3.20Q24.17 3.51 24.19 3.89L24.19 3.89L24.19 3.89Q24.22 4.32 24.27 4.90L24.27 4.90L24.27 4.90Q24.32 5.48 24.37 6.14L24.37 6.14L24.37 6.14Q24.43 6.79 24.50 7.50L24.50 7.50L24.50 7.50Q24.56 8.20 24.63 8.89L24.63 8.89L24.63 8.89Q24.70 9.57 24.76 10.20L24.76 10.20L24.76 10.20Q24.83 10.83 24.88 11.34L24.88 11.34L24.88 11.34Q24.94 11.85 24.99 12.20L24.99 12.20L24.99 12.20Q25.03 12.55 25.06 12.68L25.06 12.68L25.06 12.68Q25.10 12.88 25.17 13.00L25.17 13.00L25.17 13.00Q25.24 13.12 25.42 13.12L25.42 13.12L25.42 13.12Q25.60 13.12 25.76 13.05L25.76 13.05L25.76 13.05Q25.93 12.99 26.06 12.92L26.06 12.92L26.17 13.17L26.17 13.17Q26.04 13.26 25.86 13.37L25.86 13.37L25.86 13.37Q25.67 13.49 25.43 13.59L25.43 13.59L25.43 13.59Q25.18 13.69 24.89 13.76L24.89 13.76L24.89 13.76Q24.60 13.83 24.27 13.83L24.27 13.83L24.27 13.83Q23.80 13.83 23.52 13.71L23.52 13.71L23.52 13.71Q23.25 13.59 23.10 13.42L23.10 13.42L23.10 13.42Q22.96 13.24 22.90 13.05L22.90 13.05L22.90 13.05Q22.85 12.85 22.83 12.69L22.83 12.69L22.83 12.69Q22.76 12.35 22.70 11.85L22.70 11.85L22.70 11.85Q22.63 11.36 22.56 10.80L22.56 10.80L22.56 10.80Q22.50 10.23 22.44 9.64L22.44 9.64L22.44 9.64Q22.37 9.04 22.32 8.47L22.32 8.47L22.32 8.47Q22.27 7.90 22.23 7.39L22.23 7.39L22.23 7.39Q22.19 6.88 22.16 6.51L22.16 6.51L22.16 6.51Q21.96 6.84 21.78 7.15L21.78 7.15L21.78 7.15Q21.61 7.46 21.44 7.79L21.44 7.79L21.44 7.79Q21.28 8.11 21.11 8.47L21.11 8.47L21.11 8.47Q20.94 8.83 20.75 9.24L20.75 9.24L20.75 9.24Q20.56 9.66 20.34 10.16L20.34 10.16L20.34 10.16Q20.12 10.66 19.85 11.27L19.85 11.27Z"></path></g><!----><!----></svg>