<svg data-v-423bf9ae="" xmlns="http://www.w3.org/2000/svg" viewBox="0 0 114.40436090802523 60" class="font"><!----><!----><defs data-v-423bf9ae=""><linearGradient data-v-423bf9ae="" gradientTransform="rotate(25)" id="822ab079-80d0-41c6-aea6-a17bb4c7cc2b" x1="0%" y1="0%" x2="100%" y2="0%"><stop data-v-423bf9ae="" offset="0%" style="stop-color: rgb(255, 180, 0); stop-opacity: 1;"></stop><stop data-v-423bf9ae="" offset="100%" style="stop-color: rgb(255, 182, 7); stop-opacity: 1;"></stop></linearGradient></defs><g data-v-423bf9ae="" id="a59611c3-340d-4480-bdb8-c1ddab6cfa81" fill="url(#822ab079-80d0-41c6-aea6-a17bb4c7cc2b)" transform="matrix(4.084411280727514,0,0,4.084411280727514,-4.65623065816375,-18.58407258318698)"><path d="M9.65 4.65L8.03 4.66L6.01 4.64L5.99 4.78C6.88 4.78 7.14 4.85 7.14 5.33C7.14 5.52 7.10 5.78 7.04 6.13L6.35 10.16C6.15 10.15 5.95 10.14 5.77 10.14C2.99 10.14 1.14 11.94 1.14 14.64C1.14 15.93 1.87 16.79 2.95 16.79C6.30 16.79 7.39 14.77 8.29 10.75C9.52 10.92 11.17 11.12 12.41 11.14L11.74 14.99C11.72 15.13 11.70 15.29 11.70 15.44C11.70 17.73 13.27 19.24 15.61 19.24C17.25 19.24 18.33 18.68 18.33 17.81C18.33 17.23 17.45 17.05 17.09 17.05C17.09 18.06 16.19 18.74 15.22 18.74C13.78 18.74 13.15 18.33 13.15 17.04C13.15 16.72 13.23 16.32 13.30 15.99L14.44 10.96C15.20 10.77 15.76 10.42 16.02 9.80L15.62 9.57C15.48 9.96 15.11 10.21 14.58 10.37L15.05 8.27C15.19 7.68 15.80 5.39 15.87 4.65L14.25 4.66L13.46 4.64L13.44 4.78C13.38 5.35 13.35 5.63 13.26 6.13L12.50 10.59C11.31 10.59 9.65 10.45 8.37 10.33L8.83 8.27C8.97 7.68 9.58 5.39 9.65 4.65ZM6.29 10.51C5.85 13.03 5.68 16.17 3.06 16.17C2.21 16.17 1.64 15.49 1.64 14.46C1.64 12.07 3.27 10.48 5.70 10.48C5.88 10.48 6.08 10.49 6.29 10.51ZM20.05 13.47C19.54 13.28 18.97 13.15 18.34 13.15C17.16 13.15 16.19 13.82 16.19 14.93C16.19 15.69 16.78 16.17 17.74 16.17C19.14 16.17 20.37 15.55 21.21 14.50C21.77 14.89 22.81 16.00 24.24 16.00C26.45 16.00 29.15 14.76 29.15 12.24C29.15 10.80 28.05 9.82 26.20 9.60L26.20 9.59C27.80 9.17 28.95 8.24 28.95 6.85C28.95 5.52 27.51 4.66 25.20 4.66C24.90 4.66 19.68 4.57 19.37 4.55L19.41 4.97C19.55 4.96 19.95 4.96 20.46 4.96C21.15 4.96 21.38 5.08 21.38 5.51C21.38 5.70 21.33 5.96 21.27 6.31ZM21.44 14.16C21.81 13.61 22.08 12.96 22.22 12.24L23.07 8.41C23.19 7.87 23.73 5.88 23.86 4.98C24.50 5.00 24.99 5.00 25.14 5.00C26.16 5.01 26.91 5.69 26.91 6.75C26.91 8.37 25.55 9.44 24.28 9.45L23.86 9.44C23.78 9.44 23.69 9.55 23.69 9.67C23.69 9.78 23.77 9.84 23.88 9.85C24.46 9.87 24.94 9.91 25.35 9.91C26.43 9.91 27.06 10.70 27.06 11.96C27.06 14.16 25.87 15.52 24.34 15.52C22.93 15.52 22.40 14.72 21.44 14.16ZM19.97 13.83C19.63 15.04 18.79 15.83 17.81 15.83C17.02 15.83 16.54 15.45 16.54 14.85C16.54 13.99 17.32 13.49 18.27 13.49C18.96 13.49 19.50 13.62 19.97 13.83Z"></path></g><!----><!----></svg>